{
  "accessors": [
    {
      "name": "Cylinder.001_Cylinder.014-Mesh_0_positions",
      "componentType": 5126,
      "count": 26693,
      "min": [
        -3.6375250816345215,
        -3.809149980545044,
        0.5680609941482544
      ],
      "max": [
        3.722712993621826,
        3.5508298873901367,
        2.952003002166748
      ],
      "type": "VEC3",
      "bufferView": 0,
      "byteOffset": 0
    },
    {
      "name": "Cylinder.001_Cylinder.014-Mesh_0_normals",
      "componentType": 5126,
      "count": 26693,
      "min": [
        -0.9999863505363464,
        -0.9999853372573853,
        -0.9999973773956299
      ],
      "max": [
        0.9999969005584717,
        0.9999999403953552,
        0.9981700778007507
      ],
      "type": "VEC3",
      "bufferView": 1,
      "byteOffset": 0
    },
    {
      "name": "Cylinder.001_Cylinder.014-Mesh_0_texcoords",
      "componentType": 5126,
      "count": 26693,
      "min": [
        0,
        0
      ],
      "max": [
        1,
        1
      ],
      "type": "VEC2",
      "bufferView": 2,
      "byteOffset": 0
    },
    {
      "name": "Cylinder.001_Cylinder.014-Mesh_0_indices",
      "componentType": 5123,
      "count": 142728,
      "min": [
        0
      ],
      "max": [
        26692
      ],
      "type": "SCALAR",
      "bufferView": 3,
      "byteOffset": 0
    },
    {
      "name": "Cylinder.000_Cylinder.003-Mesh_0_positions",
      "componentType": 5126,
      "count": 5196,
      "min": [
        -2.3168609142303467,
        -2.4886159896850586,
        0.3136979937553406
      ],
      "max": [
        2.402050018310547,
        2.2302939891815186,
        2.7518630027770996
      ],
      "type": "VEC3",
      "bufferView": 0,
      "byteOffset": 320316
    },
    {
      "name": "Cylinder.000_Cylinder.003-Mesh_0_normals",
      "componentType": 5126,
      "count": 5196,
      "min": [
        -1,
        -1,
        -0.9999998807907104
      ],
      "max": [
        1,
        1,
        1
      ],
      "type": "VEC3",
      "bufferView": 1,
      "byteOffset": 320316
    },
    {
      "name": "Cylinder.000_Cylinder.003-Mesh_0_texcoords",
      "componentType": 5126,
      "count": 5196,
      "min": [
        0,
        1
      ],
      "max": [
        0,
        1
      ],
      "type": "VEC2",
      "bufferView": 2,
      "byteOffset": 213544
    },
    {
      "name": "Cylinder.000_Cylinder.003-Mesh_0_indices",
      "componentType": 5123,
      "count": 24408,
      "min": [
        0
      ],
      "max": [
        5195
      ],
      "type": "SCALAR",
      "bufferView": 3,
      "byteOffset": 285456
    },
    {
      "name": "Cylinder.000_Cylinder.003-Mesh_1_positions",
      "componentType": 5126,
      "count": 896,
      "min": [
        -1.8374990224838257,
        -2.009253978729248,
        0.6624720096588135
      ],
      "max": [
        1.9226880073547363,
        1.7509340047836304,
        1.2587649822235107
      ],
      "type": "VEC3",
      "bufferView": 0,
      "byteOffset": 382668
    },
    {
      "name": "Cylinder.000_Cylinder.003-Mesh_1_normals",
      "componentType": 5126,
      "count": 896,
      "min": [
        -1,
        -1,
        -0.9999426007270813
      ],
      "max": [
        1,
        1,
        0.9999426007270813
      ],
      "type": "VEC3",
      "bufferView": 1,
      "byteOffset": 382668
    },
    {
      "name": "Cylinder.000_Cylinder.003-Mesh_1_texcoords",
      "componentType": 5126,
      "count": 896,
      "min": [
        0,
        1
      ],
      "max": [
        0,
        1
      ],
      "type": "VEC2",
      "bufferView": 2,
      "byteOffset": 255112
    },
    {
      "name": "Cylinder.000_Cylinder.003-Mesh_1_indices",
      "componentType": 5123,
      "count": 4992,
      "min": [
        0
      ],
      "max": [
        895
      ],
      "type": "SCALAR",
      "bufferView": 3,
      "byteOffset": 334272
    },
    {
      "name": "Cylinder.000_Cylinder.003-Mesh_2_positions",
      "componentType": 5126,
      "count": 288,
      "min": [
        -0.31337299942970276,
        -0.4851270020008087,
        0.3663089871406555
      ],
      "max": [
        0.3985610008239746,
        0.22680699825286865,
        0.38196098804473877
      ],
      "type": "VEC3",
      "bufferView": 0,
      "byteOffset": 393420
    },
    {
      "name": "Cylinder.000_Cylinder.003-Mesh_2_normals",
      "componentType": 5126,
      "count": 288,
      "min": [
        -0.7565463781356812,
        -0.7565463781356812,
        -1
      ],
      "max": [
        0.7565463781356812,
        0.7565463781356812,
        -0.6539075374603271
      ],
      "type": "VEC3",
      "bufferView": 1,
      "byteOffset": 393420
    },
    {
      "name": "Cylinder.000_Cylinder.003-Mesh_2_texcoords",
      "componentType": 5126,
      "count": 288,
      "min": [
        0.31224000453948975,
        0.3016650080680847
      ],
      "max": [
        0.6617469787597656,
        0.6953349709510803
      ],
      "type": "VEC2",
      "bufferView": 2,
      "byteOffset": 262280
    },
    {
      "name": "Cylinder.000_Cylinder.003-Mesh_2_indices",
      "componentType": 5123,
      "count": 1578,
      "min": [
        0
      ],
      "max": [
        287
      ],
      "type": "SCALAR",
      "bufferView": 3,
      "byteOffset": 344256
    }
  ],
  "asset": {
    "generator": "obj2gltf",
    "version": "2.0"
  },
  "buffers": [
    {
      "name": "myhweekl",
      "byteLength": 1471812,
      "uri": "data:application/octet-stream;base64,"
    }
  ],
  "bufferViews": [
    {
      "name": "bufferView_0",
      "buffer": 0,
      "byteLength": 396876,
      "byteOffset": 0,
      "byteStride": 12,
      "target": 34962
    },
    {
      "name": "bufferView_1",
      "buffer": 0,
      "byteLength": 396876,
      "byteOffset": 396876,
      "byteStride": 12,
      "target": 34962
    },
    {
      "name": "bufferView_2",
      "buffer": 0,
      "byteLength": 264584,
      "byteOffset": 793752,
      "byteStride": 8,
      "target": 34962
    },
    {
      "name": "bufferView_3",
      "buffer": 0,
      "byteLength": 347412,
      "byteOffset": 1058336,
      "target": 34963
    },
    {
      "buffer": 0,
      "byteOffset": 1405748,
      "byteLength": 66064
    }
  ],
  "images": [
    {
      "name": "daimler",
      "mimeType": "image/png",
      "bufferView": 4
    }
  ],
  "materials": [
    {
      "name": "tire",
      "pbrMetallicRoughness": {
        "baseColorFactor": [
          0.015079,
          0.015079,
          0.015079,
          1
        ],
        "metallicFactor": 0,
        "roughnessFactor": 0.903921569
      },
      "emissiveFactor": [
        0,
        0,
        0
      ],
      "alphaMode": "OPAQUE",
      "doubleSided": false
    },
    {
      "name": "bum",
      "pbrMetallicRoughness": {
        "baseColorFactor": [
          0.64,
          0.64,
          0.64,
          1
        ],
        "metallicFactor": 0,
        "roughnessFactor": 0.903921569
      },
      "emissiveFactor": [
        0,
        0,
        0
      ],
      "alphaMode": "OPAQUE",
      "doubleSided": false
    },
    {
      "name": "rubby",
      "pbrMetallicRoughness": {
        "baseColorFactor": [
          0.64,
          0.64,
          0.64,
          1
        ],
        "metallicFactor": 0,
        "roughnessFactor": 0.903921569
      },
      "emissiveFactor": [
        0,
        0,
        0
      ],
      "alphaMode": "OPAQUE",
      "doubleSided": false
    },
    {
      "name": "logoggpogpog",
      "pbrMetallicRoughness": {
        "baseColorTexture": {
          "index": 0
        },
        "baseColorFactor": [
          1,
          1,
          1,
          1
        ],
        "metallicFactor": 0,
        "roughnessFactor": 0.903921569
      },
      "emissiveFactor": [
        0,
        0,
        0
      ],
      "alphaMode": "OPAQUE",
      "doubleSided": false
    }
  ],
  "meshes": [
    {
      "name": "Cylinder.001_Cylinder.014-Mesh",
      "primitives": [
        {
          "attributes": {
            "POSITION": 0,
            "NORMAL": 1,
            "TEXCOORD_0": 2
          },
          "indices": 3,
          "material": 0,
          "mode": 4
        }
      ]
    },
    {
      "name": "Cylinder.000_Cylinder.003-Mesh",
      "primitives": [
        {
          "attributes": {
            "POSITION": 4,
            "NORMAL": 5,
            "TEXCOORD_0": 6
          },
          "indices": 7,
          "material": 1,
          "mode": 4
        },
        {
          "attributes": {
            "POSITION": 8,
            "NORMAL": 9,
            "TEXCOORD_0": 10
          },
          "indices": 11,
          "material": 2,
          "mode": 4
        },
        {
          "attributes": {
            "POSITION": 12,
            "NORMAL": 13,
            "TEXCOORD_0": 14
          },
          "indices": 15,
          "material": 3,
          "mode": 4
        }
      ]
    }
  ],
  "nodes": [
    {
      "name": "Cylinder.001_Cylinder.014",
      "mesh": 0
    },
    {
      "name": "Cylinder.000_Cylinder.003",
      "mesh": 1
    }
  ],
  "samplers": [
    {
      "wrapS": 10497,
      "wrapT": 10497
    }
  ],
  "scene": 0,
  "scenes": [
    {
      "nodes": [
        0,
        1
      ]
    }
  ],
  "textures": [
    {
      "name": "daimler",
      "sampler": 0,
      "source": 0
    }
  ]
}
