<svg id="图层_1" data-name="图层 1" xmlns="http://www.w3.org/2000/svg" viewBox="0 0 150 150"><defs><style>.cls-1{fill:none;stroke:#7fd322;stroke-linecap:round;stroke-linejoin:round;stroke-width:5px;}.cls-2{fill:#7fd322;}</style></defs><title>澳門官網圖標</title><path class="cls-1" d="M47.38,96.07c3.83,1,6.07,2.3,16.08,2,0,0-6-10.6,1.2-24.41,7.08-13.59,20.28-20.07,36-20.07"/><path class="cls-1" d="M33.18,89.75c-9.73-6.59-16-16.76-16-28.17,0-19.88,18.92-36,42.27-36,20.11,0,36.94,12,41.21,28"/><polyline class="cls-1" points="33.42 89.91 28.86 105.48 46.86 95.93"/><circle class="cls-2" cx="70.51" cy="50.64" r="5.99"/><circle class="cls-2" cx="41.25" cy="50.64" r="5.99"/><path class="cls-1" d="M122.36,110.59c7.55-5.12,12.39-13,12.39-21.86,0-15.42-14.68-27.92-32.79-27.92S69.17,73.31,69.17,88.73,83.85,116.65,102,116.65a38.32,38.32,0,0,0,9.38-1.16"/><polyline class="cls-1" points="122.18 110.71 125.71 122.79 111.74 115.38"/><circle class="cls-2" cx="90.6" cy="80.24" r="4.65"/><circle class="cls-2" cx="113.31" cy="80.24" r="4.65"/></svg>